<svg width="56" height="63" viewBox="0 0 56 63" fill="none" xmlns="http://www.w3.org/2000/svg">
<g filter="url(#filter0_d)">
<path d="M45.3051 10.1619C41.2105 6.81445 36.1893 4.99129 31.1084 4.99129C25.4595 4.99129 20.0498 7.11333 15.9552 10.9689C11.8306 14.8543 9.37984 20.0847 9.05107 25.7335L9.02118 26.3313H11.6214L11.6812 25.7933C12.3985 15.6015 20.9465 7.65131 31.1382 7.65131C35.741 7.65131 40.0448 9.1756 43.5417 12.0747L43.751 12.2541L45.604 10.401L45.3051 10.1619Z" fill="black"/>
<path d="M42.7347 35.5069C40.0149 39.213 35.6812 41.4247 31.1084 41.4247C23.2179 41.4247 16.792 34.9988 16.792 27.1084C16.792 19.2777 23.2179 12.8817 31.1084 12.8817C35.6812 12.8817 40.0448 15.0934 42.7347 18.7995L42.944 19.0685L44.8269 17.1856L44.6775 16.9764C41.4496 12.7323 36.3985 10.2217 31.1382 10.2217C21.7833 10.2217 14.1619 17.7833 14.1619 27.0785C14.1619 36.4334 21.7833 44.0548 31.1382 44.0548C36.3985 44.0548 41.4795 41.5143 44.6775 37.3001L44.8269 37.0909L42.944 35.208L42.7347 35.5069Z" fill="black"/>
<path d="M48.3238 13.3001C47.9054 12.792 47.487 12.2541 46.9789 11.746L46.7697 11.5367L44.9166 13.3898L45.1258 13.599C45.6339 14.1071 46.0523 14.6152 46.4409 15.1233L46.6501 15.3923L48.5031 13.5392L48.3238 13.3001Z" fill="black"/>
<path d="M43.5717 42.0523L43.3625 42.2316C39.8357 45.1308 35.5916 46.6849 30.959 46.6849C20.7672 46.6849 12.2192 38.7049 11.5019 28.543L11.472 27.8854H8.84189L8.87178 28.5729C9.23043 34.2217 11.6812 39.482 15.7759 43.3375C19.9004 47.193 25.2802 49.3151 30.9291 49.3151C36.0997 49.3151 41.1806 47.462 45.1258 44.1445L45.3649 43.9353L43.5717 42.0523Z" fill="black"/>
<path d="M46.6202 38.9141L46.411 39.1831C46.0224 39.6912 45.604 40.1993 45.0959 40.7074L44.8867 40.9166L46.7398 42.7696L46.949 42.5604C47.487 42.0224 47.9054 41.5143 48.2939 41.0062L48.4733 40.797L46.6202 38.9141Z" fill="black"/>
<path d="M49.9078 42.68C45.3649 48.3288 38.4907 51.5866 31.1084 51.5866C17.6289 51.5866 6.66002 40.6177 6.66002 27.1382C6.66002 13.6588 17.6289 2.68991 31.1084 2.68991C38.401 2.68991 45.2453 5.9477 49.9078 11.5965L50.1171 11.8655L51.9701 10.0125L51.7908 9.80324C46.6799 3.55666 39.0884 0 31.1084 0C16.1644 0 4 12.1644 4 27.1083C4 42.0523 16.1644 54.2167 31.1084 54.2167C39.1183 54.2167 46.6501 50.66 51.8207 44.5031L52 44.2939L50.1469 42.4409L49.9078 42.68Z" fill="black"/>
</g>
<defs>
<filter id="filter0_d" x="0" y="0" width="56" height="62.2167" filterUnits="userSpaceOnUse" color-interpolation-filters="sRGB">
<feFlood flood-opacity="0" result="BackgroundImageFix"/>
<feColorMatrix in="SourceAlpha" type="matrix" values="0 0 0 0 0 0 0 0 0 0 0 0 0 0 0 0 0 0 127 0"/>
<feOffset dy="4"/>
<feGaussianBlur stdDeviation="2"/>
<feColorMatrix type="matrix" values="0 0 0 0 0 0 0 0 0 0 0 0 0 0 0 0 0 0 0.25 0"/>
<feBlend mode="normal" in2="BackgroundImageFix" result="effect1_dropShadow"/>
<feBlend mode="normal" in="SourceGraphic" in2="effect1_dropShadow" result="shape"/>
</filter>
</defs>
</svg>
