<svg width="48" height="55" viewBox="0 0 48 55" fill="none" xmlns="http://www.w3.org/2000/svg">
<path d="M41.3052 10.1619C37.2105 6.81445 32.1894 4.99129 27.1084 4.99129C21.4596 4.99129 16.0499 7.11333 11.9552 10.9689C7.83071 14.8543 5.3799 20.0847 5.05113 25.7335L5.02124 26.3313H7.62149L7.68126 25.7933C8.39857 15.6015 16.9465 7.65131 27.1383 7.65131C31.741 7.65131 36.0449 9.1756 39.5418 12.0747L39.751 12.2541L41.6041 10.401L41.3052 10.1619Z" fill="#FFFFFA"/>
<path d="M38.7347 35.5069C36.0149 39.213 31.6812 41.4247 27.1083 41.4247C19.2179 41.4247 12.792 34.9988 12.792 27.1084C12.792 19.2777 19.2179 12.8817 27.1083 12.8817C31.6812 12.8817 36.0448 15.0934 38.7347 18.7995L38.9439 19.0685L40.8269 17.1856L40.6774 16.9764C37.4495 12.7323 32.3985 10.2217 27.1382 10.2217C17.7833 10.2217 10.1619 17.7833 10.1619 27.0785C10.1619 36.4334 17.7833 44.0548 27.1382 44.0548C32.3985 44.0548 37.4794 41.5143 40.6774 37.3001L40.8269 37.0909L38.9439 35.208L38.7347 35.5069Z" fill="#FFFFFA"/>
<path d="M44.3237 13.3001C43.9053 12.792 43.4869 12.2541 42.9788 11.746L42.7696 11.5367L40.9165 13.3898L41.1257 13.599C41.6338 14.1071 42.0523 14.6152 42.4408 15.1233L42.65 15.3923L44.5031 13.5392L44.3237 13.3001Z" fill="#FFFFFA"/>
<path d="M39.5716 42.0523L39.3624 42.2316C35.8356 45.1308 31.5915 46.6849 26.9589 46.6849C16.7671 46.6849 8.21913 38.7049 7.50182 28.543L7.47194 27.8854H4.8418L4.87169 28.5729C5.23034 34.2217 7.68115 39.482 11.7758 43.3375C15.9003 47.193 21.2802 49.3151 26.929 49.3151C32.0996 49.3151 37.1805 47.462 41.1257 44.1445L41.3648 43.9353L39.5716 42.0523Z" fill="#FFFFFA"/>
<path d="M42.6202 38.9141L42.411 39.1831C42.0225 39.6912 41.604 40.1993 41.0959 40.7074L40.8867 40.9166L42.7398 42.7696L42.949 42.5604C43.487 42.0224 43.9054 41.5143 44.2939 41.0062L44.4733 40.797L42.6202 38.9141Z" fill="#FFFFFA"/>
<path d="M45.9078 42.68C41.3649 48.3288 34.4907 51.5866 27.1084 51.5866C13.6289 51.5866 2.66002 40.6177 2.66002 27.1382C2.66002 13.6588 13.6289 2.68991 27.1084 2.68991C34.401 2.68991 41.2453 5.9477 45.9078 11.5965L46.1171 11.8655L47.9701 10.0125L47.7908 9.80324C42.6799 3.55666 35.0884 0 27.1084 0C12.1644 0 0 12.1644 0 27.1083C0 42.0523 12.1644 54.2167 27.1084 54.2167C35.1183 54.2167 42.6501 50.66 47.8207 44.5031L48 44.2939L46.1469 42.4409L45.9078 42.68Z" fill="#FFFFFA"/>
</svg>
