<svg width="43" height="43" viewBox="0 0 43 43" fill="none" xmlns="http://www.w3.org/2000/svg">
<path d="M40.3927 21.2876C40.3927 31.7214 31.9337 40.1803 21.5 40.1803C11.0664 40.1803 2.60742 31.7214 2.60742 21.2876C2.60742 10.854 11.0663 2.39502 21.5 2.39502C31.9338 2.39502 40.3927 10.854 40.3927 21.2876Z" stroke="#fff" stroke-width="3" stroke-miterlimit="10"/>
<path d="M31.226 15.249C30.4921 15.5775 29.7017 15.8003 28.8739 15.8998C29.7197 15.3874 30.3684 14.5775 30.6757 13.6122C29.8838 14.0852 29.0067 14.4299 28.0743 14.6153C27.327 13.8111 26.2621 13.3096 25.0837 13.3096C22.821 13.3096 20.9882 15.162 20.9882 17.4445C20.9882 17.7683 21.0237 18.0848 21.0939 18.3874C17.6902 18.2144 14.6715 16.5683 12.6519 14.0656C12.2983 14.677 12.0971 15.3875 12.0971 16.145C12.0971 17.5802 12.8203 18.8466 13.9181 19.5875C13.2468 19.5663 12.616 19.3798 12.0627 19.0694C12.0627 19.0875 12.0627 19.1041 12.0627 19.1222C12.0627 21.1249 13.4751 22.7965 15.3484 23.1762C15.0055 23.2711 14.6432 23.3223 14.2701 23.3223C14.0063 23.3223 13.7497 23.2965 13.4989 23.2483C14.0212 24.8913 15.5336 26.0868 17.3264 26.1199C15.9243 27.2298 14.1583 27.8894 12.2388 27.8894C11.9073 27.8894 11.5809 27.8713 11.2617 27.8324C13.0739 29.0055 15.2264 29.6905 17.5395 29.6905C25.0734 29.6905 29.1946 23.3883 29.1946 17.9238C29.1946 17.7445 29.1901 17.5668 29.1828 17.3891C29.9835 16.8061 30.6773 16.0775 31.226 15.249Z" fill="#fff"/>
</svg>
