<svg width="43" height="43" viewBox="0 0 43 43" fill="none" xmlns="http://www.w3.org/2000/svg">
<path d="M40.368 21.3569C40.368 31.7774 31.9202 40.2252 21.4996 40.2252C11.0787 40.2252 2.63086 31.7774 2.63086 21.3569C2.63086 10.9358 11.0786 2.48804 21.4996 2.48804C31.9202 2.48804 40.368 10.9359 40.368 21.3569Z" stroke="#fff" stroke-width="3" stroke-miterlimit="10"/>
<path d="M31.226 17.7977C31.226 16.1668 29.8903 14.8452 28.2426 14.8452H14.2448C12.5975 14.8452 11.2617 16.1671 11.2617 17.7977V25.7142C11.2617 27.3451 12.5975 28.6666 14.2448 28.6666H28.2421C29.8903 28.6666 31.2256 27.3448 31.2256 25.7142V17.7977H31.226ZM19.2469 25.0958V17.6598L24.9486 21.3781L19.2469 25.0958Z" fill="#fff"/>
</svg>
